<svg xmlns="http://www.w3.org/2000/svg" xmlns:xlink="http://www.w3.org/1999/xlink" width="500" zoomAndPan="magnify" viewBox="0 0 375 374.999991" height="500" preserveAspectRatio="xMidYMid meet" version="1.0"><defs><g/><linearGradient x1="0" gradientTransform="matrix(0.75, 0, 0, 0.75, 0.0000045, 0)" y1="250" x2="499.999979" gradientUnits="userSpaceOnUse" y2="250" id="4411ac945d"><stop stop-opacity="1" stop-color="rgb(0%, 0%, 0%)" offset="0"/><stop stop-opacity="1" stop-color="rgb(0.175476%, 0.175476%, 0.175476%)" offset="0.0078125"/><stop stop-opacity="1" stop-color="rgb(0.526428%, 0.526428%, 0.526428%)" offset="0.015625"/><stop stop-opacity="1" stop-color="rgb(0.878906%, 0.878906%, 0.878906%)" offset="0.0234375"/><stop stop-opacity="1" stop-color="rgb(1.231384%, 1.231384%, 1.231384%)" offset="0.03125"/><stop stop-opacity="1" stop-color="rgb(1.583862%, 1.583862%, 1.583862%)" offset="0.0390625"/><stop stop-opacity="1" stop-color="rgb(1.93634%, 1.93634%, 1.93634%)" offset="0.046875"/><stop stop-opacity="1" stop-color="rgb(2.288818%, 2.288818%, 2.288818%)" offset="0.0546875"/><stop stop-opacity="1" stop-color="rgb(2.641296%, 2.641296%, 2.641296%)" offset="0.0625"/><stop stop-opacity="1" stop-color="rgb(2.993774%, 2.993774%, 2.993774%)" offset="0.0703125"/><stop stop-opacity="1" stop-color="rgb(3.346252%, 3.346252%, 3.346252%)" offset="0.078125"/><stop stop-opacity="1" stop-color="rgb(3.69873%, 3.69873%, 3.69873%)" offset="0.0859375"/><stop stop-opacity="1" stop-color="rgb(4.051208%, 4.051208%, 4.051208%)" offset="0.09375"/><stop stop-opacity="1" stop-color="rgb(4.402161%, 4.402161%, 4.402161%)" offset="0.101562"/><stop stop-opacity="1" stop-color="rgb(4.754639%, 4.754639%, 4.754639%)" offset="0.109375"/><stop stop-opacity="1" stop-color="rgb(5.107117%, 5.107117%, 5.107117%)" offset="0.117188"/><stop stop-opacity="1" stop-color="rgb(5.459595%, 5.459595%, 5.459595%)" offset="0.125"/><stop stop-opacity="1" stop-color="rgb(5.812073%, 5.812073%, 5.812073%)" offset="0.132812"/><stop stop-opacity="1" stop-color="rgb(6.164551%, 6.164551%, 6.164551%)" offset="0.140625"/><stop stop-opacity="1" stop-color="rgb(6.517029%, 6.517029%, 6.517029%)" offset="0.148437"/><stop stop-opacity="1" stop-color="rgb(6.869507%, 6.869507%, 6.869507%)" offset="0.15625"/><stop stop-opacity="1" stop-color="rgb(7.221985%, 7.221985%, 7.221985%)" offset="0.164062"/><stop stop-opacity="1" stop-color="rgb(7.574463%, 7.574463%, 7.574463%)" offset="0.171875"/><stop stop-opacity="1" stop-color="rgb(7.926941%, 7.926941%, 7.926941%)" offset="0.179687"/><stop stop-opacity="1" stop-color="rgb(8.277893%, 8.277893%, 8.277893%)" offset="0.1875"/><stop stop-opacity="1" stop-color="rgb(8.630371%, 8.630371%, 8.630371%)" offset="0.195312"/><stop stop-opacity="1" stop-color="rgb(8.982849%, 8.982849%, 8.982849%)" offset="0.203125"/><stop stop-opacity="1" stop-color="rgb(9.335327%, 9.335327%, 9.335327%)" offset="0.210938"/><stop stop-opacity="1" stop-color="rgb(9.687805%, 9.687805%, 9.687805%)" offset="0.21875"/><stop stop-opacity="1" stop-color="rgb(10.040283%, 10.040283%, 10.040283%)" offset="0.226562"/><stop stop-opacity="1" stop-color="rgb(10.392761%, 10.392761%, 10.392761%)" offset="0.234375"/><stop stop-opacity="1" stop-color="rgb(10.745239%, 10.745239%, 10.745239%)" offset="0.242188"/><stop stop-opacity="1" stop-color="rgb(11.097717%, 11.097717%, 11.097717%)" offset="0.25"/><stop stop-opacity="1" stop-color="rgb(11.450195%, 11.450195%, 11.450195%)" offset="0.257812"/><stop stop-opacity="1" stop-color="rgb(11.802673%, 11.802673%, 11.802673%)" offset="0.265625"/><stop stop-opacity="1" stop-color="rgb(12.155151%, 12.155151%, 12.155151%)" offset="0.273437"/><stop stop-opacity="1" stop-color="rgb(12.506104%, 12.506104%, 12.506104%)" offset="0.28125"/><stop stop-opacity="1" stop-color="rgb(12.858582%, 12.858582%, 12.858582%)" offset="0.289062"/><stop stop-opacity="1" stop-color="rgb(13.21106%, 13.21106%, 13.21106%)" offset="0.296875"/><stop stop-opacity="1" stop-color="rgb(13.563538%, 13.563538%, 13.563538%)" offset="0.304687"/><stop stop-opacity="1" stop-color="rgb(13.916016%, 13.916016%, 13.916016%)" offset="0.3125"/><stop stop-opacity="1" stop-color="rgb(14.268494%, 14.268494%, 14.268494%)" offset="0.320312"/><stop stop-opacity="1" stop-color="rgb(14.620972%, 14.620972%, 14.620972%)" offset="0.328125"/><stop stop-opacity="1" stop-color="rgb(14.97345%, 14.97345%, 14.97345%)" offset="0.335937"/><stop stop-opacity="1" stop-color="rgb(15.325928%, 15.325928%, 15.325928%)" offset="0.34375"/><stop stop-opacity="1" stop-color="rgb(15.678406%, 15.678406%, 15.678406%)" offset="0.351562"/><stop stop-opacity="1" stop-color="rgb(16.030884%, 16.030884%, 16.030884%)" offset="0.359375"/><stop stop-opacity="1" stop-color="rgb(16.381836%, 16.381836%, 16.381836%)" offset="0.367187"/><stop stop-opacity="1" stop-color="rgb(16.734314%, 16.734314%, 16.734314%)" offset="0.375"/><stop stop-opacity="1" stop-color="rgb(17.086792%, 17.086792%, 17.086792%)" offset="0.382812"/><stop stop-opacity="1" stop-color="rgb(17.43927%, 17.43927%, 17.43927%)" offset="0.390625"/><stop stop-opacity="1" stop-color="rgb(17.791748%, 17.791748%, 17.791748%)" offset="0.398438"/><stop stop-opacity="1" stop-color="rgb(18.144226%, 18.144226%, 18.144226%)" offset="0.40625"/><stop stop-opacity="1" stop-color="rgb(18.496704%, 18.496704%, 18.496704%)" offset="0.414062"/><stop stop-opacity="1" stop-color="rgb(18.849182%, 18.849182%, 18.849182%)" offset="0.421875"/><stop stop-opacity="1" stop-color="rgb(19.20166%, 19.20166%, 19.20166%)" offset="0.429688"/><stop stop-opacity="1" stop-color="rgb(19.554138%, 19.554138%, 19.554138%)" offset="0.4375"/><stop stop-opacity="1" stop-color="rgb(19.906616%, 19.906616%, 19.906616%)" offset="0.445312"/><stop stop-opacity="1" stop-color="rgb(20.257568%, 20.257568%, 20.257568%)" offset="0.453125"/><stop stop-opacity="1" stop-color="rgb(20.610046%, 20.610046%, 20.610046%)" offset="0.460938"/><stop stop-opacity="1" stop-color="rgb(20.962524%, 20.962524%, 20.962524%)" offset="0.46875"/><stop stop-opacity="1" stop-color="rgb(21.315002%, 21.315002%, 21.315002%)" offset="0.476562"/><stop stop-opacity="1" stop-color="rgb(21.66748%, 21.66748%, 21.66748%)" offset="0.484375"/><stop stop-opacity="1" stop-color="rgb(22.019958%, 22.019958%, 22.019958%)" offset="0.492188"/><stop stop-opacity="1" stop-color="rgb(22.372437%, 22.372437%, 22.372437%)" offset="0.5"/><stop stop-opacity="1" stop-color="rgb(22.724915%, 22.724915%, 22.724915%)" offset="0.507812"/><stop stop-opacity="1" stop-color="rgb(23.077393%, 23.077393%, 23.077393%)" offset="0.515625"/><stop stop-opacity="1" stop-color="rgb(23.429871%, 23.429871%, 23.429871%)" offset="0.523437"/><stop stop-opacity="1" stop-color="rgb(23.782349%, 23.782349%, 23.782349%)" offset="0.53125"/><stop stop-opacity="1" stop-color="rgb(24.134827%, 24.134827%, 24.134827%)" offset="0.539062"/><stop stop-opacity="1" stop-color="rgb(24.485779%, 24.485779%, 24.485779%)" offset="0.546875"/><stop stop-opacity="1" stop-color="rgb(24.838257%, 24.838257%, 24.838257%)" offset="0.554687"/><stop stop-opacity="1" stop-color="rgb(25.190735%, 25.190735%, 25.190735%)" offset="0.5625"/><stop stop-opacity="1" stop-color="rgb(25.543213%, 25.543213%, 25.543213%)" offset="0.570312"/><stop stop-opacity="1" stop-color="rgb(25.895691%, 25.895691%, 25.895691%)" offset="0.578125"/><stop stop-opacity="1" stop-color="rgb(26.248169%, 26.248169%, 26.248169%)" offset="0.585937"/><stop stop-opacity="1" stop-color="rgb(26.600647%, 26.600647%, 26.600647%)" offset="0.59375"/><stop stop-opacity="1" stop-color="rgb(26.953125%, 26.953125%, 26.953125%)" offset="0.601562"/><stop stop-opacity="1" stop-color="rgb(27.305603%, 27.305603%, 27.305603%)" offset="0.609375"/><stop stop-opacity="1" stop-color="rgb(27.658081%, 27.658081%, 27.658081%)" offset="0.617187"/><stop stop-opacity="1" stop-color="rgb(28.010559%, 28.010559%, 28.010559%)" offset="0.625"/><stop stop-opacity="1" stop-color="rgb(28.361511%, 28.361511%, 28.361511%)" offset="0.632812"/><stop stop-opacity="1" stop-color="rgb(28.713989%, 28.713989%, 28.713989%)" offset="0.640625"/><stop stop-opacity="1" stop-color="rgb(29.066467%, 29.066467%, 29.066467%)" offset="0.648437"/><stop stop-opacity="1" stop-color="rgb(29.418945%, 29.418945%, 29.418945%)" offset="0.65625"/><stop stop-opacity="1" stop-color="rgb(29.771423%, 29.771423%, 29.771423%)" offset="0.664062"/><stop stop-opacity="1" stop-color="rgb(30.123901%, 30.123901%, 30.123901%)" offset="0.671875"/><stop stop-opacity="1" stop-color="rgb(30.476379%, 30.476379%, 30.476379%)" offset="0.679687"/><stop stop-opacity="1" stop-color="rgb(30.828857%, 30.828857%, 30.828857%)" offset="0.6875"/><stop stop-opacity="1" stop-color="rgb(31.181335%, 31.181335%, 31.181335%)" offset="0.695312"/><stop stop-opacity="1" stop-color="rgb(31.533813%, 31.533813%, 31.533813%)" offset="0.703125"/><stop stop-opacity="1" stop-color="rgb(31.886292%, 31.886292%, 31.886292%)" offset="0.710937"/><stop stop-opacity="1" stop-color="rgb(32.237244%, 32.237244%, 32.237244%)" offset="0.71875"/><stop stop-opacity="1" stop-color="rgb(32.589722%, 32.589722%, 32.589722%)" offset="0.726562"/><stop stop-opacity="1" stop-color="rgb(32.9422%, 32.9422%, 32.9422%)" offset="0.734375"/><stop stop-opacity="1" stop-color="rgb(33.294678%, 33.294678%, 33.294678%)" offset="0.742187"/><stop stop-opacity="1" stop-color="rgb(33.647156%, 33.647156%, 33.647156%)" offset="0.75"/><stop stop-opacity="1" stop-color="rgb(33.999634%, 33.999634%, 33.999634%)" offset="0.757812"/><stop stop-opacity="1" stop-color="rgb(34.352112%, 34.352112%, 34.352112%)" offset="0.765625"/><stop stop-opacity="1" stop-color="rgb(34.70459%, 34.70459%, 34.70459%)" offset="0.773438"/><stop stop-opacity="1" stop-color="rgb(35.057068%, 35.057068%, 35.057068%)" offset="0.78125"/><stop stop-opacity="1" stop-color="rgb(35.409546%, 35.409546%, 35.409546%)" offset="0.789062"/><stop stop-opacity="1" stop-color="rgb(35.762024%, 35.762024%, 35.762024%)" offset="0.796875"/><stop stop-opacity="1" stop-color="rgb(36.114502%, 36.114502%, 36.114502%)" offset="0.804688"/><stop stop-opacity="1" stop-color="rgb(36.465454%, 36.465454%, 36.465454%)" offset="0.8125"/><stop stop-opacity="1" stop-color="rgb(36.817932%, 36.817932%, 36.817932%)" offset="0.820312"/><stop stop-opacity="1" stop-color="rgb(37.17041%, 37.17041%, 37.17041%)" offset="0.828125"/><stop stop-opacity="1" stop-color="rgb(37.522888%, 37.522888%, 37.522888%)" offset="0.835938"/><stop stop-opacity="1" stop-color="rgb(37.875366%, 37.875366%, 37.875366%)" offset="0.84375"/><stop stop-opacity="1" stop-color="rgb(38.227844%, 38.227844%, 38.227844%)" offset="0.851562"/><stop stop-opacity="1" stop-color="rgb(38.580322%, 38.580322%, 38.580322%)" offset="0.859375"/><stop stop-opacity="1" stop-color="rgb(38.9328%, 38.9328%, 38.9328%)" offset="0.867188"/><stop stop-opacity="1" stop-color="rgb(39.285278%, 39.285278%, 39.285278%)" offset="0.875"/><stop stop-opacity="1" stop-color="rgb(39.637756%, 39.637756%, 39.637756%)" offset="0.882812"/><stop stop-opacity="1" stop-color="rgb(39.990234%, 39.990234%, 39.990234%)" offset="0.890625"/><stop stop-opacity="1" stop-color="rgb(40.341187%, 40.341187%, 40.341187%)" offset="0.898438"/><stop stop-opacity="1" stop-color="rgb(40.693665%, 40.693665%, 40.693665%)" offset="0.90625"/><stop stop-opacity="1" stop-color="rgb(41.046143%, 41.046143%, 41.046143%)" offset="0.914062"/><stop stop-opacity="1" stop-color="rgb(41.398621%, 41.398621%, 41.398621%)" offset="0.921875"/><stop stop-opacity="1" stop-color="rgb(41.751099%, 41.751099%, 41.751099%)" offset="0.929688"/><stop stop-opacity="1" stop-color="rgb(42.103577%, 42.103577%, 42.103577%)" offset="0.9375"/><stop stop-opacity="1" stop-color="rgb(42.456055%, 42.456055%, 42.456055%)" offset="0.945312"/><stop stop-opacity="1" stop-color="rgb(42.808533%, 42.808533%, 42.808533%)" offset="0.953125"/><stop stop-opacity="1" stop-color="rgb(43.161011%, 43.161011%, 43.161011%)" offset="0.960938"/><stop stop-opacity="1" stop-color="rgb(43.513489%, 43.513489%, 43.513489%)" offset="0.96875"/><stop stop-opacity="1" stop-color="rgb(43.865967%, 43.865967%, 43.865967%)" offset="0.976562"/><stop stop-opacity="1" stop-color="rgb(44.216919%, 44.216919%, 44.216919%)" offset="0.984375"/><stop stop-opacity="1" stop-color="rgb(44.569397%, 44.569397%, 44.569397%)" offset="0.992188"/><stop stop-opacity="1" stop-color="rgb(44.921875%, 44.921875%, 44.921875%)" offset="1"/></linearGradient><clipPath id="ae679a9961"><path d="M 45.652344 226.027344 L 329.152344 226.027344 L 329.152344 306.277344 L 45.652344 306.277344 Z M 45.652344 226.027344 " clip-rule="nonzero"/></clipPath><clipPath id="e8a1e3ae45"><path d="M 91.03125 68.867188 L 283.96875 68.867188 L 283.96875 261.808594 L 91.03125 261.808594 Z M 91.03125 68.867188 " clip-rule="nonzero"/></clipPath><clipPath id="de9f910485"><path d="M 187.5 68.867188 C 134.222656 68.867188 91.03125 112.058594 91.03125 165.339844 C 91.03125 218.617188 134.222656 261.808594 187.5 261.808594 C 240.777344 261.808594 283.96875 218.617188 283.96875 165.339844 C 283.96875 112.058594 240.777344 68.867188 187.5 68.867188 Z M 187.5 68.867188 " clip-rule="nonzero"/></clipPath><clipPath id="0c9a9ab032"><path d="M 102.773438 80.613281 L 271.972656 80.613281 L 271.972656 249.8125 L 102.773438 249.8125 Z M 102.773438 80.613281 " clip-rule="nonzero"/></clipPath><clipPath id="42e2e41455"><path d="M 121.726562 93.472656 L 243.566406 93.472656 L 243.566406 249.8125 L 121.726562 249.8125 Z M 121.726562 93.472656 " clip-rule="nonzero"/></clipPath><clipPath id="0db2d48a10"><path d="M 57.648438 238.140625 L 317.148438 238.140625 L 317.148438 293.640625 L 57.648438 293.640625 Z M 57.648438 238.140625 " clip-rule="nonzero"/></clipPath><clipPath id="5baa9ec2f7"><path d="M 57.589844 238.140625 L 317.089844 238.140625 L 317.089844 270.390625 L 57.589844 270.390625 Z M 57.589844 238.140625 " clip-rule="nonzero"/></clipPath></defs><rect x="-37.5" width="450" fill="#ffffff" y="-37.499999" height="449.999989" fill-opacity="1"/><rect x="-37.5" fill="url(#4411ac945d)" width="450" y="-37.499999" height="449.999989"/><g clip-path="url(#ae679a9961)"><path fill="#32a1cb" d="M 45.652344 226.027344 L 329.152344 226.027344 L 329.152344 306.277344 L 45.652344 306.277344 Z M 45.652344 226.027344 " fill-opacity="1" fill-rule="nonzero"/></g><g clip-path="url(#e8a1e3ae45)"><g clip-path="url(#de9f910485)"><path fill="#32a1cb" d="M 91.03125 68.867188 L 283.96875 68.867188 L 283.96875 261.808594 L 91.03125 261.808594 Z M 91.03125 68.867188 " fill-opacity="1" fill-rule="nonzero"/></g></g><g clip-path="url(#0c9a9ab032)"><path fill="#ff9935" d="M 102.773438 165.332031 C 102.773438 118.542969 140.703125 80.613281 187.492188 80.613281 C 234.28125 80.613281 272.210938 118.542969 272.210938 165.332031 C 272.210938 212.121094 234.28125 250.050781 187.492188 250.050781 C 140.703125 250.050781 102.773438 212.121094 102.773438 165.332031 " fill-opacity="1" fill-rule="nonzero"/><path fill="#ffffff" d="M 214.761719 245.5625 L 196.792969 205.4375 L 207.5 247.671875 C 207.019531 247.789062 206.539062 247.902344 206.058594 248.007812 L 193.410156 206.433594 L 198.695312 249.316406 C 198.203125 249.378906 197.707031 249.441406 197.210938 249.496094 L 189.929688 206.996094 L 189.796875 250.019531 C 189.300781 250.03125 188.800781 250.039062 188.300781 250.042969 L 186.40625 207.121094 L 180.882812 249.796875 C 180.386719 249.757812 179.886719 249.714844 179.390625 249.667969 L 182.894531 206.800781 L 172.019531 248.640625 C 171.53125 248.550781 171.042969 248.453125 170.558594 248.355469 L 179.453125 206.042969 L 163.277344 246.539062 C 162.804688 246.398438 162.335938 246.253906 161.871094 246.105469 L 176.132812 204.859375 L 154.742188 243.488281 C 154.296875 243.300781 153.855469 243.109375 153.414062 242.917969 L 172.984375 203.269531 L 146.503906 239.492188 C 146.089844 239.261719 145.679688 239.03125 145.269531 238.792969 L 170.0625 201.300781 L 138.644531 234.558594 C 138.269531 234.292969 137.894531 234.023438 137.527344 233.753906 L 167.410156 198.976562 L 131.261719 228.699219 C 130.929688 228.40625 130.601562 228.109375 130.273438 227.808594 L 165.070312 196.34375 L 124.460938 221.941406 C 124.175781 221.625 123.894531 221.304688 123.617188 220.984375 L 163.078125 193.433594 L 118.359375 214.3125 C 118.125 213.980469 117.894531 213.652344 117.664062 213.320312 L 161.464844 190.296875 L 113.078125 205.855469 C 112.894531 205.523438 112.714844 205.1875 112.535156 204.851562 L 160.261719 186.984375 L 108.75 196.648438 C 108.617188 196.316406 108.488281 195.988281 108.363281 195.65625 L 159.480469 183.546875 L 105.511719 186.777344 C 105.429688 186.460938 105.347656 186.140625 105.269531 185.820312 L 159.132812 180.039062 L 103.484375 176.367188 C 103.445312 176.070312 103.410156 175.769531 103.375 175.46875 L 159.234375 176.515625 L 102.773438 165.566406 L 102.773438 165.332031 L 102.777344 164.742188 L 159.773438 173.03125 L 103.453125 154.542969 L 103.550781 153.808594 L 160.746094 169.640625 L 105.613281 143.496094 L 105.785156 142.859375 L 162.132812 166.402344 L 109.304688 132.652344 L 109.53125 132.121094 L 163.917969 163.363281 L 114.527344 122.25 L 114.785156 121.820312 L 166.066406 160.570312 L 121.234375 112.53125 L 121.503906 112.195312 L 168.554688 158.066406 L 129.328125 103.734375 L 129.597656 103.480469 L 171.332031 155.898438 L 138.679688 96.078125 L 138.941406 95.898438 L 174.359375 154.089844 L 149.121094 89.78125 L 149.363281 89.65625 L 177.589844 152.679688 L 160.4375 85.023438 L 160.664062 84.949219 L 180.972656 151.683594 L 172.378906 81.957031 L 172.589844 81.917969 L 184.453125 151.121094 L 184.664062 80.660156 L 184.871094 80.652344 L 187.972656 150.996094 L 197.011719 81.140625 L 197.21875 81.164062 L 191.484375 151.316406 L 209.140625 83.402344 L 209.351562 83.460938 L 194.925781 152.074219 L 220.761719 87.394531 L 220.988281 87.492188 L 198.25 153.257812 L 231.617188 92.996094 L 231.855469 93.144531 L 201.394531 154.847656 L 241.472656 100.035156 L 241.726562 100.246094 L 204.316406 156.820312 L 250.148438 108.308594 L 250.40625 108.59375 L 206.96875 159.140625 L 257.492188 117.601562 L 257.746094 117.972656 L 209.3125 161.773438 L 263.402344 127.679688 L 263.632812 128.144531 L 211.304688 164.683594 L 267.808594 138.304688 L 267.996094 138.871094 L 212.914062 167.820312 L 270.683594 149.242188 L 270.808594 149.910156 L 214.117188 171.132812 L 272.0625 160.261719 L 272.101562 161.023438 L 214.902344 174.570312 L 272.011719 171.152344 C 271.992188 171.433594 271.972656 171.714844 271.953125 171.992188 L 215.246094 178.078125 L 270.625 181.730469 C 270.5625 182.035156 270.503906 182.335938 270.441406 182.640625 L 215.148438 181.601562 L 267.976562 191.847656 C 267.871094 192.167969 267.765625 192.484375 267.65625 192.800781 L 214.605469 185.085938 L 264.1875 201.363281 C 264.035156 201.691406 263.878906 202.015625 263.71875 202.339844 L 213.636719 188.476562 L 259.382812 210.171875 C 259.179688 210.5 258.972656 210.824219 258.761719 211.148438 L 212.246094 191.714844 L 253.695312 218.195312 C 253.441406 218.515625 253.183594 218.832031 252.925781 219.148438 L 210.464844 194.757812 L 247.253906 225.378906 C 246.949219 225.679688 246.644531 225.980469 246.335938 226.277344 L 208.3125 197.550781 L 240.171875 231.683594 C 239.820312 231.960938 239.472656 232.234375 239.117188 232.507812 L 205.828125 200.050781 L 232.558594 237.078125 C 232.167969 237.324219 231.777344 237.566406 231.382812 237.808594 L 203.050781 202.222656 L 224.515625 241.550781 C 224.089844 241.757812 223.664062 241.960938 223.230469 242.164062 L 200.023438 204.027344 L 216.132812 245.085938 C 215.679688 245.25 215.222656 245.410156 214.761719 245.5625 " fill-opacity="1" fill-rule="nonzero"/></g><g clip-path="url(#42e2e41455)"><path fill="#0d364e" d="M 208.296875 132.640625 C 207.871094 134.886719 206.523438 133.824219 206.464844 135.558594 C 208.636719 140.824219 208.203125 145.175781 206.460938 149.558594 C 207.769531 155.152344 207.199219 159.699219 205.890625 162.9375 C 207.007812 167.722656 205.6875 172.09375 199.667969 174.015625 C 205.09375 175.285156 208.949219 179.800781 210.878906 183.457031 C 238.507812 194.808594 249.324219 210.585938 240.578125 231.355469 C 226.054688 243.050781 207.589844 250.050781 187.492188 250.050781 C 161.035156 250.050781 137.410156 237.921875 121.875 218.921875 C 126.621094 197.78125 138.925781 182.636719 158.796875 173.496094 C 161.546875 168.996094 162.476562 162.667969 161.589844 154.523438 C 160.136719 150.785156 156.835938 147.59375 154.386719 141.914062 L 148.140625 140.386719 C 146.445312 138.628906 145.335938 134.898438 145.726562 130.242188 L 147.695312 126.570312 C 143.257812 88.9375 201.394531 79.714844 212.199219 118.476562 C 226.441406 122.605469 226.140625 129.136719 208.296875 132.640625 " fill-opacity="1" fill-rule="nonzero"/></g><path fill="#0d364e" d="M 200.589844 241.789062 C 213.832031 227.671875 221.023438 219.207031 222.160156 216.554688 C 221.777344 208.585938 225.816406 199.019531 229.488281 196.117188 C 233.957031 192.492188 230.460938 178.203125 232.167969 177.226562 C 239.308594 173.152344 246.296875 179.933594 242.832031 192.324219 C 241.308594 196.730469 243.199219 198.476562 246.757812 199.523438 C 252.03125 200.226562 256.527344 200.609375 262.832031 200.855469 C 268.058594 201.597656 267.589844 208.90625 263.007812 210.949219 C 265.320312 212.390625 264.621094 218.089844 260.828125 218.699219 C 262.140625 219.59375 262.039062 224.949219 257.804688 225.890625 C 260.007812 228.542969 256.664062 233.089844 251.425781 233.652344 C 251.425781 233.652344 238.195312 235.5625 233.9375 235.695312 L 224.53125 241.667969 L 200.589844 241.789062 " fill-opacity="1" fill-rule="evenodd"/><path fill="#32a1cb" d="M 217.382812 124.480469 C 206.707031 126.980469 191.667969 129.207031 168.859375 127.226562 C 157.828125 127.4375 151.042969 130.609375 148.5 136.742188 C 147.417969 134.925781 147.417969 132.210938 148.5 128.601562 C 155.316406 122.609375 165.394531 121.609375 176.074219 123.96875 C 186.007812 122.320312 198.089844 121.074219 209.117188 120.96875 C 216.050781 122.695312 216.269531 123.296875 217.382812 124.480469 " fill-opacity="1" fill-rule="evenodd"/><path fill="#32a1cb" d="M 208.421875 118.316406 L 194.433594 119.445312 C 190.632812 105.589844 180.0625 99.265625 162.71875 100.46875 C 179.292969 91.605469 200.875 94.773438 208.421875 118.316406 " fill-opacity="1" fill-rule="evenodd"/><path stroke-linecap="butt" transform="matrix(0.0225627, 0, 0, -0.0225627, 102.773633, 250.048988)" fill="none" stroke-linejoin="miter" d="M 4682.427271 5838.509182 L 4062.453779 5788.475019 C 3893.999657 6402.562139 3425.513684 6682.857332 2656.82273 6629.533725 C 3391.407351 7022.362503 4347.942829 6881.955214 4682.427271 5838.509182 Z M 4682.427271 5838.509182 " stroke="#264a86" stroke-width="10.87" stroke-opacity="1" stroke-miterlimit="3.864"/><path fill="#32a1cb" d="M 189.0625 120.007812 C 188.167969 107.691406 178.078125 102.136719 158.792969 103.347656 C 152.453125 108.605469 149.378906 115.957031 149.578125 125.414062 C 158.152344 119.648438 166.976562 118.449219 176.050781 121.808594 L 189.0625 120.007812 " fill-opacity="1" fill-rule="evenodd"/><path fill="#ffe8d4" d="M 204.582031 129.433594 C 205.90625 131.132812 205.996094 131.84375 202.054688 133.070312 C 203.195312 135.878906 204.054688 139.308594 204.636719 143.359375 C 206.226562 144.585938 206.148438 146.578125 204.398438 149.339844 C 205.878906 155.109375 205.894531 159.464844 204.441406 162.40625 C 204.984375 166.667969 203.933594 169.347656 201.285156 170.445312 C 201.863281 168.753906 201.765625 167.316406 201 166.136719 C 201.820312 177.113281 176.972656 168.921875 171.472656 161.734375 C 169.578125 158.277344 168.894531 153.988281 169.414062 148.863281 C 162.332031 157.667969 153.097656 119.238281 169.988281 139.339844 L 173.914062 139.433594 C 172.796875 138.105469 173.355469 136.476562 175.585938 134.550781 C 175.066406 132.875 175.191406 131.394531 175.96875 130.105469 C 186.949219 131.351562 196.488281 131.128906 204.582031 129.433594 " fill-opacity="1" fill-rule="evenodd"/><path fill="#ffe8d4" d="M 175.761719 167.558594 L 175.550781 177.449219 C 179.707031 179.605469 183.726562 182.964844 189.808594 184.378906 L 195.59375 190.722656 L 193.535156 177.832031 C 191.480469 178.574219 187.847656 177.167969 187.535156 176.636719 L 186.304688 180.875 L 184.238281 174.777344 C 181.15625 173.652344 178.332031 171.246094 175.761719 167.558594 " fill-opacity="1" fill-rule="evenodd"/><path fill="#ffffff" d="M 164.023438 171.976562 C 171.304688 178.9375 179.75 183.925781 189.355469 186.941406 L 197.378906 197.132812 C 198.269531 195.398438 198.621094 191.824219 198.433594 186.414062 C 199.851562 182.382812 200.097656 179.171875 199.164062 176.777344 C 202.714844 179.847656 205.8125 184.542969 208.449219 190.863281 L 201.125 187.320312 C 201.757812 192.609375 200.929688 198.613281 198.636719 205.332031 C 196.292969 198.832031 192.367188 194.136719 186.863281 191.246094 L 181.328125 195.871094 L 162.722656 177.417969 L 164.023438 171.976562 " fill-opacity="1" fill-rule="evenodd"/><path fill="#32a1cb" d="M 152.425781 183.015625 C 172.292969 189.574219 191.203125 204.207031 209.152344 226.914062 L 199.515625 235.992188 C 185.78125 215.386719 161.953125 198.574219 137.011719 196.613281 C 140.96875 189.863281 145.078125 187.339844 152.425781 183.015625 " fill-opacity="1" fill-rule="evenodd"/><path fill="#32a1cb" d="M 208.972656 185.886719 C 214.425781 195.230469 217.335938 205.519531 217.703125 216.753906 L 224.847656 199.445312 L 221.449219 191.246094 L 208.972656 185.886719 " fill-opacity="1" fill-rule="evenodd"/><path fill="#ffe8d4" d="M 200.269531 244.082031 C 208.671875 235.789062 219.863281 224.207031 224.160156 217.917969 C 223.925781 209.753906 225.636719 202.8125 232.058594 196.589844 C 236.734375 191.511719 232.503906 179.277344 234.34375 178.632812 C 239.292969 176.902344 242.804688 182.265625 240.320312 193.132812 C 238.746094 198.359375 240.769531 200.171875 243.792969 201.585938 C 248.15625 202.476562 253.234375 202.757812 262.300781 203.035156 C 265.5 204.074219 264.5625 208.605469 261.84375 208.804688 L 253.878906 209.496094 C 252.636719 210.328125 252.539062 210.882812 253.59375 211.171875 L 261.046875 211.039062 C 262.65625 211.304688 262.390625 216.023438 259.808594 217.277344 L 252.980469 217.875 C 251.28125 217.964844 251.632812 219.011719 252.738281 219.269531 L 258.234375 219.160156 C 260.074219 219.328125 259.542969 223.339844 256.945312 224.507812 L 250.125 224.746094 C 248.417969 225.109375 248.277344 226.632812 249.796875 226.457031 L 255.074219 226.1875 C 257.125 226.648438 256.152344 230.375 252.757812 231.277344 C 245.386719 232.488281 237.734375 233.027344 229.808594 232.898438 L 232.9375 233.792969 L 223.0625 239.933594 C 213.722656 242.714844 206.125 244.097656 200.269531 244.082031 " fill-opacity="1" fill-rule="evenodd"/><path fill="#0d364e" d="M 195.988281 132.664062 C 192.933594 133.609375 192.480469 131.648438 187.941406 132.03125 C 185.125 132.097656 182.785156 133.664062 180.925781 136.71875 C 184.222656 135.140625 186.457031 134.351562 188.480469 134.242188 C 190.039062 134.160156 191.140625 134.253906 191.757812 135.222656 C 192.890625 135.222656 192.789062 135.953125 192.023438 136.179688 C 190.316406 137.546875 188.460938 138 185.691406 138.164062 C 187.851562 138.625 189.003906 139.148438 193.050781 136.8125 C 193.839844 136.621094 194.496094 137.0625 195.058594 137.785156 L 195.726562 142.605469 C 188.882812 145.8125 190.605469 150.183594 196.324219 149.6875 C 197.882812 153.703125 199.433594 154.023438 201.683594 149.695312 C 202.507812 149.410156 203.839844 148.910156 204.238281 148.425781 C 199.078125 148.023438 198.203125 146.152344 201.609375 142.804688 C 201.136719 142.488281 200.636719 142.535156 200.101562 142.953125 C 199.652344 139.488281 198.820312 135.804688 197.753906 132.996094 C 197.972656 130.546875 197.21875 131.046875 195.988281 132.664062 " fill-opacity="1" fill-rule="evenodd"/><path fill="#0d364e" d="M 185.492188 135.578125 C 185.492188 134.46875 186.394531 133.566406 187.507812 133.566406 C 188.617188 133.566406 189.519531 134.46875 189.519531 135.578125 C 189.519531 136.691406 188.617188 137.589844 187.507812 137.589844 C 186.394531 137.589844 185.492188 136.691406 185.492188 135.578125 " fill-opacity="1" fill-rule="nonzero"/><path fill="#0d364e" d="M 202.890625 154 C 200.617188 154.730469 196.816406 154.769531 191.378906 154.90625 C 189.523438 156.160156 188.386719 158.472656 194.453125 160.296875 C 198.074219 160.542969 201.082031 160.300781 203.039062 158.472656 C 203.296875 157.128906 201.476562 156.511719 202.890625 154 " fill-opacity="1" fill-rule="evenodd"/><path fill="#0d364e" d="M 202.480469 161.621094 C 201.476562 167.109375 198.375 167.960938 192.078125 162.828125 C 196.824219 163.355469 200.292969 162.949219 202.480469 161.621094 " fill-opacity="1" fill-rule="evenodd"/><path fill="#0d364e" d="M 186.328125 157.492188 C 182.671875 166.367188 186.160156 171.28125 196.800781 172.230469 C 188.414062 169.910156 184.925781 165 186.328125 157.492188 " fill-opacity="1" fill-rule="evenodd"/><path fill="#0d364e" d="M 181.460938 158.203125 C 179.328125 163.949219 180.234375 168.191406 184.175781 170.9375 C 181.886719 167.667969 180.984375 163.421875 181.460938 158.203125 " fill-opacity="1" fill-rule="evenodd"/><path fill="#ffffff" d="M 201.191406 155.578125 C 199.179688 156.214844 196.199219 156.125 191.957031 156 C 192.027344 159.933594 199.5 158.472656 201.476562 157.539062 L 201.191406 155.578125 " fill-opacity="1" fill-rule="evenodd"/><path fill="#ffe8d4" d="M 197.925781 148.011719 C 197.160156 147.183594 196.160156 147.238281 194.914062 148.179688 C 191.652344 147.355469 193.167969 144.511719 198.003906 143.5625 C 196.453125 144.871094 196.652344 146.214844 197.925781 148.011719 " fill-opacity="1" fill-rule="evenodd"/><path fill="#0d364e" d="M 192.917969 144.644531 C 190.929688 145.921875 187.027344 148.0625 184.804688 146.816406 C 183.847656 148.4375 184.824219 152.679688 185.78125 154.664062 L 187.292969 149.496094 C 188.65625 149.769531 190.320312 149.175781 192.296875 147.714844 L 192.917969 144.644531 " fill-opacity="1" fill-rule="evenodd"/><path fill="#0d364e" d="M 168.53125 145.394531 C 167.714844 144.667969 167.59375 143.53125 168.171875 141.980469 C 167.035156 138.886719 165.503906 137.238281 163.582031 137.03125 L 162.800781 140.289062 L 164.300781 139.25 L 166.417969 141.316406 L 163.789062 142.148438 L 166.722656 142.664062 C 165.40625 145.589844 166.011719 146.5 168.53125 145.394531 " fill-opacity="1" fill-rule="evenodd"/><path fill="#ffffff" d="M 187.007812 135.65625 C 187.007812 135.273438 187.320312 134.960938 187.703125 134.960938 C 188.085938 134.960938 188.394531 135.273438 188.394531 135.65625 C 188.394531 136.039062 188.085938 136.347656 187.703125 136.347656 C 187.320312 136.347656 187.007812 136.039062 187.007812 135.65625 " fill-opacity="1" fill-rule="nonzero"/><path fill="#0d364e" d="M 171.84375 120.875 C 171.464844 116.949219 169.953125 113.128906 167.304688 109.410156 C 163.875 106.847656 158.710938 107.332031 151.8125 110.859375 C 157.820312 109.59375 161.816406 110.003906 163.789062 112.085938 C 165.128906 113.703125 165.679688 116.597656 165.445312 120.773438 L 171.84375 120.875 " fill-opacity="1" fill-rule="evenodd"/><path fill="#ffffff" d="M 135.53125 207.308594 C 156.300781 208.882812 174.199219 221.933594 182.046875 243.136719 C 169.65625 244.492188 158.726562 241.625 149.257812 234.535156 C 146.386719 224.296875 150.125 215.214844 135.53125 207.308594 " fill-opacity="1" fill-rule="evenodd"/><path fill="#0d364e" d="M 149.738281 128.703125 C 149.117188 130.238281 148.796875 131.90625 148.773438 133.710938 C 150.429688 131.261719 153.105469 129.359375 156.800781 128.007812 L 149.738281 128.703125 " fill-opacity="1" fill-rule="evenodd"/><path fill="#0d364e" d="M 153.417969 111.769531 C 151.648438 115.8125 150.933594 119.464844 151.277344 122.726562 C 153.652344 121.011719 156.027344 120.125 158.402344 120.070312 C 155.191406 117.46875 153.527344 114.703125 153.417969 111.769531 " fill-opacity="1" fill-rule="evenodd"/><path fill="#0d364e" d="M 186.480469 98.03125 C 196.628906 101.917969 203.140625 108.199219 206.011719 116.867188 L 199.167969 117.214844 C 201.792969 113.746094 197.5625 107.351562 186.480469 98.03125 " fill-opacity="1" fill-rule="evenodd"/><path fill="#0d364e" d="M 208.671875 121.816406 L 212.679688 124.105469 C 206.535156 125.183594 198.875 125.484375 189.707031 125.003906 L 208.671875 121.816406 " fill-opacity="1" fill-rule="evenodd"/><path fill="#ffe8d4" d="M 166.476562 161.046875 L 165.53125 169.59375 L 170.714844 173.941406 C 169.335938 170.398438 167.921875 166.101562 166.476562 161.046875 " fill-opacity="1" fill-rule="evenodd"/><path fill="#0d364e" d="M 204.5 243.40625 L 219.59375 234.328125 C 213.523438 239.824219 209.0625 243.265625 206.199219 244.644531 L 204.5 243.40625 " fill-opacity="1" fill-rule="evenodd"/><path fill="#0d364e" d="M 233.511719 186.023438 C 234.566406 184.027344 235.695312 183.902344 236.902344 185.648438 C 235.816406 185.421875 234.6875 185.546875 233.511719 186.023438 " fill-opacity="1" fill-rule="evenodd"/><path fill="#0d364e" d="M 186.445312 135.78125 C 186.445312 135.441406 186.722656 135.164062 187.0625 135.164062 C 187.40625 135.164062 187.683594 135.441406 187.683594 135.78125 C 187.683594 136.125 187.40625 136.402344 187.0625 136.402344 C 186.722656 136.402344 186.445312 136.125 186.445312 135.78125 " fill-opacity="1" fill-rule="nonzero"/><g clip-path="url(#0db2d48a10)"><path fill="#ffffff" d="M 57.648438 238.140625 L 317.148438 238.140625 L 317.148438 293.640625 L 57.648438 293.640625 Z M 57.648438 238.140625 " fill-opacity="1" fill-rule="nonzero"/></g><g clip-path="url(#5baa9ec2f7)"><path fill="#ff9935" d="M 57.589844 238.140625 L 317.089844 238.140625 L 317.089844 270.390625 L 57.589844 270.390625 Z M 57.589844 238.140625 " fill-opacity="1" fill-rule="nonzero"/></g><g fill="#ffffff" fill-opacity="1"><g transform="translate(129.838473, 262.259337)"><g><path d="M 0.609375 0 L 0.609375 -3.21875 L 2.109375 -3.21875 L 2.109375 -13.71875 L 0.609375 -13.71875 L 0.609375 -16.90625 L 7.984375 -16.90625 C 9.929688 -16.90625 11.585938 -16.539062 12.953125 -15.8125 C 14.328125 -15.09375 15.375 -14.109375 16.09375 -12.859375 C 16.8125 -11.617188 17.171875 -10.226562 17.171875 -8.6875 C 17.171875 -5.925781 16.367188 -3.785156 14.765625 -2.265625 C 13.160156 -0.753906 10.867188 0 7.890625 0 Z M 7.0625 -3.21875 L 7.984375 -3.21875 C 8.835938 -3.226562 9.53125 -3.476562 10.0625 -3.96875 C 10.59375 -4.46875 10.984375 -5.128906 11.234375 -5.953125 C 11.484375 -6.773438 11.609375 -7.6875 11.609375 -8.6875 C 11.609375 -9.550781 11.484375 -10.363281 11.234375 -11.125 C 10.984375 -11.894531 10.59375 -12.519531 10.0625 -13 C 9.53125 -13.476562 8.835938 -13.71875 7.984375 -13.71875 L 7.0625 -13.71875 Z M 7.0625 -3.21875 "/></g></g></g><g fill="#ffffff" fill-opacity="1"><g transform="translate(147.253438, 262.259337)"><g><path d="M 9.015625 0.4375 C 7.335938 0.4375 5.847656 0.109375 4.546875 -0.546875 C 3.242188 -1.203125 2.21875 -2.191406 1.46875 -3.515625 C 0.726562 -4.847656 0.359375 -6.519531 0.359375 -8.53125 C 0.359375 -10.28125 0.71875 -11.816406 1.4375 -13.140625 C 2.15625 -14.472656 3.15625 -15.507812 4.4375 -16.25 C 5.71875 -16.988281 7.191406 -17.359375 8.859375 -17.359375 C 10.835938 -17.359375 12.46875 -16.988281 13.75 -16.25 C 15.03125 -15.507812 15.976562 -14.46875 16.59375 -13.125 C 17.21875 -11.78125 17.53125 -10.195312 17.53125 -8.375 C 17.53125 -6.550781 17.195312 -4.976562 16.53125 -3.65625 C 15.875 -2.34375 14.910156 -1.332031 13.640625 -0.625 C 12.378906 0.0820312 10.835938 0.4375 9.015625 0.4375 Z M 9.015625 -3.359375 C 9.773438 -3.359375 10.375 -3.816406 10.8125 -4.734375 C 11.257812 -5.660156 11.484375 -6.875 11.484375 -8.375 C 11.484375 -9.351562 11.390625 -10.238281 11.203125 -11.03125 C 11.023438 -11.820312 10.738281 -12.453125 10.34375 -12.921875 C 9.957031 -13.398438 9.453125 -13.640625 8.828125 -13.640625 C 8.347656 -13.660156 7.914062 -13.453125 7.53125 -13.015625 C 7.15625 -12.578125 6.863281 -11.96875 6.65625 -11.1875 C 6.445312 -10.414062 6.34375 -9.53125 6.34375 -8.53125 C 6.34375 -6.957031 6.59375 -5.703125 7.09375 -4.765625 C 7.601562 -3.828125 8.242188 -3.359375 9.015625 -3.359375 Z M 9.015625 -3.359375 "/></g></g></g><g fill="#ffffff" fill-opacity="1"><g transform="translate(165.152145, 262.259337)"><g><path d="M 7.734375 -5.46875 L 7.859375 -5.46875 C 7.878906 -5.644531 7.925781 -5.941406 8 -6.359375 C 8.070312 -6.773438 8.164062 -7.273438 8.28125 -7.859375 C 8.40625 -8.441406 8.535156 -9.039062 8.671875 -9.65625 C 8.804688 -10.28125 8.929688 -10.882812 9.046875 -11.46875 L 10.25 -16.90625 L 15.28125 -16.90625 L 16.8125 -10.234375 C 16.988281 -9.441406 17.132812 -8.601562 17.25 -7.71875 C 17.375 -6.832031 17.46875 -6.082031 17.53125 -5.46875 L 17.65625 -5.46875 C 17.6875 -5.832031 17.742188 -6.3125 17.828125 -6.90625 C 17.921875 -7.507812 18.019531 -8.101562 18.125 -8.6875 C 18.226562 -9.28125 18.3125 -9.75 18.375 -10.09375 L 19.203125 -13.765625 L 17.875 -13.765625 L 17.875 -16.90625 L 24.796875 -16.90625 L 24.796875 -13.765625 L 23.46875 -13.765625 L 19.859375 0 L 14.125 0 L 12.671875 -5.75 C 12.554688 -6.175781 12.441406 -6.691406 12.328125 -7.296875 C 12.222656 -7.898438 12.132812 -8.382812 12.0625 -8.75 L 11.96875 -8.75 C 11.9375 -8.507812 11.882812 -8.203125 11.8125 -7.828125 C 11.738281 -7.460938 11.664062 -7.09375 11.59375 -6.71875 C 11.519531 -6.351562 11.453125 -6.050781 11.390625 -5.8125 L 9.921875 0 L 4.3125 0 L 1.109375 -13.765625 L -0.234375 -13.765625 L -0.234375 -16.90625 L 7.734375 -16.90625 L 7.734375 -13.765625 L 6.34375 -13.765625 L 6.96875 -10.234375 C 7.03125 -9.941406 7.097656 -9.566406 7.171875 -9.109375 C 7.253906 -8.648438 7.332031 -8.171875 7.40625 -7.671875 C 7.476562 -7.179688 7.546875 -6.734375 7.609375 -6.328125 C 7.679688 -5.929688 7.722656 -5.644531 7.734375 -5.46875 Z M 7.734375 -5.46875 "/></g></g></g><g fill="#ffffff" fill-opacity="1"><g transform="translate(189.702398, 262.259337)"><g><path d="M 9.015625 0.4375 C 7.335938 0.4375 5.847656 0.109375 4.546875 -0.546875 C 3.242188 -1.203125 2.21875 -2.191406 1.46875 -3.515625 C 0.726562 -4.847656 0.359375 -6.519531 0.359375 -8.53125 C 0.359375 -10.28125 0.71875 -11.816406 1.4375 -13.140625 C 2.15625 -14.472656 3.15625 -15.507812 4.4375 -16.25 C 5.71875 -16.988281 7.191406 -17.359375 8.859375 -17.359375 C 10.835938 -17.359375 12.46875 -16.988281 13.75 -16.25 C 15.03125 -15.507812 15.976562 -14.46875 16.59375 -13.125 C 17.21875 -11.78125 17.53125 -10.195312 17.53125 -8.375 C 17.53125 -6.550781 17.195312 -4.976562 16.53125 -3.65625 C 15.875 -2.34375 14.910156 -1.332031 13.640625 -0.625 C 12.378906 0.0820312 10.835938 0.4375 9.015625 0.4375 Z M 9.015625 -3.359375 C 9.773438 -3.359375 10.375 -3.816406 10.8125 -4.734375 C 11.257812 -5.660156 11.484375 -6.875 11.484375 -8.375 C 11.484375 -9.351562 11.390625 -10.238281 11.203125 -11.03125 C 11.023438 -11.820312 10.738281 -12.453125 10.34375 -12.921875 C 9.957031 -13.398438 9.453125 -13.640625 8.828125 -13.640625 C 8.347656 -13.660156 7.914062 -13.453125 7.53125 -13.015625 C 7.15625 -12.578125 6.863281 -11.96875 6.65625 -11.1875 C 6.445312 -10.414062 6.34375 -9.53125 6.34375 -8.53125 C 6.34375 -6.957031 6.59375 -5.703125 7.09375 -4.765625 C 7.601562 -3.828125 8.242188 -3.359375 9.015625 -3.359375 Z M 9.015625 -3.359375 "/></g></g></g><g fill="#ffffff" fill-opacity="1"><g transform="translate(207.601105, 262.259337)"><g><path d="M 0.609375 -16.90625 L 8.46875 -16.90625 C 9.863281 -16.90625 11 -16.773438 11.875 -16.515625 C 12.757812 -16.265625 13.441406 -15.90625 13.921875 -15.4375 C 14.398438 -14.976562 14.726562 -14.453125 14.90625 -13.859375 C 15.082031 -13.265625 15.171875 -12.617188 15.171875 -11.921875 C 15.171875 -10.984375 14.832031 -10.203125 14.15625 -9.578125 C 13.488281 -8.953125 12.65625 -8.566406 11.65625 -8.421875 C 12.21875 -8.335938 12.738281 -8.132812 13.21875 -7.8125 C 13.695312 -7.488281 14.082031 -7.082031 14.375 -6.59375 C 14.675781 -6.101562 14.828125 -5.566406 14.828125 -4.984375 C 14.828125 -4.460938 14.867188 -4.054688 14.953125 -3.765625 C 15.046875 -3.484375 15.195312 -3.34375 15.40625 -3.34375 C 15.78125 -3.34375 15.96875 -3.597656 15.96875 -4.109375 L 15.96875 -4.90625 L 17.578125 -4.90625 L 17.578125 -3.578125 C 17.578125 -2.921875 17.46875 -2.289062 17.25 -1.6875 C 17.039062 -1.09375 16.679688 -0.613281 16.171875 -0.25 C 15.660156 0.113281 14.953125 0.296875 14.046875 0.296875 C 12.472656 0.296875 11.296875 -0.0976562 10.515625 -0.890625 C 9.742188 -1.679688 9.359375 -2.785156 9.359375 -4.203125 C 9.359375 -4.953125 9.304688 -5.519531 9.203125 -5.90625 C 9.097656 -6.289062 8.875 -6.554688 8.53125 -6.703125 C 8.195312 -6.859375 7.664062 -6.9375 6.9375 -6.9375 L 6.9375 -3.1875 L 8.421875 -3.1875 L 8.421875 0 L 0.609375 0 L 0.609375 -3.1875 L 1.953125 -3.1875 L 1.953125 -13.734375 L 0.609375 -13.734375 Z M 6.9375 -13.765625 L 6.9375 -9.65625 L 8.03125 -9.65625 C 8.738281 -9.65625 9.300781 -9.816406 9.71875 -10.140625 C 10.144531 -10.472656 10.359375 -10.960938 10.359375 -11.609375 C 10.359375 -12.316406 10.164062 -12.851562 9.78125 -13.21875 C 9.40625 -13.582031 8.863281 -13.765625 8.15625 -13.765625 Z M 6.9375 -13.765625 "/></g></g></g><g fill="#ffffff" fill-opacity="1"><g transform="translate(225.427257, 262.259337)"><g><path d="M 8.21875 -13.78125 L 6.921875 -13.78125 L 6.921875 -9.84375 L 11.421875 -13.78125 L 9.671875 -13.78125 L 9.671875 -16.90625 L 17.734375 -16.90625 L 17.734375 -13.78125 L 16.328125 -13.78125 L 12.8125 -10.765625 L 17.703125 -3.140625 L 19.109375 -3.140625 L 19.109375 0 L 9.671875 0 L 9.671875 -3.140625 L 11.3125 -3.140625 L 8.703125 -7.25 L 6.921875 -5.734375 L 6.921875 -3.140625 L 8.21875 -3.140625 L 8.21875 0 L 0.609375 0 L 0.609375 -3.140625 L 1.90625 -3.140625 L 1.90625 -13.78125 L 0.609375 -13.78125 L 0.609375 -16.90625 L 8.21875 -16.90625 Z M 8.21875 -13.78125 "/></g></g></g><g fill="#0d364e" fill-opacity="1"><g transform="translate(122.18613, 284.47753)"><g><path d="M 4.984375 -0.140625 L 0.6875 -0.140625 L 0.6875 -7.34375 L 2.0625 -7.34375 L 2.0625 -1.515625 L 4.984375 -1.515625 Z M 4.984375 -0.140625 "/></g></g></g><g fill="#0d364e" fill-opacity="1"><g transform="translate(127.503009, 284.47753)"><g><path d="M 3.171875 -5.640625 C 3.691406 -5.640625 4.164062 -5.507812 4.59375 -5.25 C 5.03125 -5 5.375 -4.65625 5.625 -4.21875 C 5.882812 -3.789062 6.015625 -3.316406 6.015625 -2.796875 C 6.015625 -2.285156 5.882812 -1.8125 5.625 -1.375 C 5.375 -0.945312 5.03125 -0.601562 4.59375 -0.34375 C 4.164062 -0.09375 3.691406 0.03125 3.171875 0.03125 C 2.660156 0.03125 2.1875 -0.09375 1.75 -0.34375 C 1.320312 -0.601562 0.976562 -0.945312 0.71875 -1.375 C 0.46875 -1.8125 0.34375 -2.285156 0.34375 -2.796875 C 0.34375 -3.316406 0.46875 -3.789062 0.71875 -4.21875 C 0.976562 -4.65625 1.320312 -5 1.75 -5.25 C 2.1875 -5.507812 2.660156 -5.640625 3.171875 -5.640625 Z M 3.171875 -1.34375 C 3.441406 -1.34375 3.6875 -1.40625 3.90625 -1.53125 C 4.132812 -1.664062 4.3125 -1.84375 4.4375 -2.0625 C 4.570312 -2.289062 4.640625 -2.535156 4.640625 -2.796875 C 4.640625 -3.066406 4.570312 -3.3125 4.4375 -3.53125 C 4.3125 -3.75 4.132812 -3.921875 3.90625 -4.046875 C 3.6875 -4.179688 3.441406 -4.25 3.171875 -4.25 C 2.910156 -4.25 2.664062 -4.179688 2.4375 -4.046875 C 2.21875 -3.921875 2.039062 -3.75 1.90625 -3.53125 C 1.78125 -3.3125 1.71875 -3.066406 1.71875 -2.796875 C 1.71875 -2.535156 1.78125 -2.289062 1.90625 -2.0625 C 2.039062 -1.84375 2.21875 -1.664062 2.4375 -1.53125 C 2.664062 -1.40625 2.910156 -1.34375 3.171875 -1.34375 Z M 3.171875 -1.34375 "/></g></g></g><g fill="#0d364e" fill-opacity="1"><g transform="translate(133.850074, 284.47753)"><g/></g></g><g fill="#0d364e" fill-opacity="1"><g transform="translate(135.094596, 284.47753)"><g><path d="M 3 -5.640625 C 3.320312 -5.640625 3.617188 -5.578125 3.890625 -5.453125 C 4.171875 -5.328125 4.421875 -5.140625 4.640625 -4.890625 L 4.640625 -5.46875 L 6.015625 -5.46875 L 6.015625 2.609375 L 4.640625 2.609375 L 4.640625 -0.703125 C 4.421875 -0.460938 4.171875 -0.28125 3.890625 -0.15625 C 3.617188 -0.03125 3.320312 0.03125 3 0.03125 C 2.519531 0.03125 2.078125 -0.09375 1.671875 -0.34375 C 1.265625 -0.601562 0.941406 -0.945312 0.703125 -1.375 C 0.460938 -1.8125 0.34375 -2.285156 0.34375 -2.796875 C 0.34375 -3.316406 0.460938 -3.789062 0.703125 -4.21875 C 0.941406 -4.65625 1.265625 -5 1.671875 -5.25 C 2.078125 -5.507812 2.519531 -5.640625 3 -5.640625 Z M 3.171875 -1.34375 C 3.441406 -1.34375 3.6875 -1.40625 3.90625 -1.53125 C 4.132812 -1.664062 4.3125 -1.84375 4.4375 -2.0625 C 4.570312 -2.289062 4.640625 -2.535156 4.640625 -2.796875 C 4.640625 -3.066406 4.570312 -3.3125 4.4375 -3.53125 C 4.3125 -3.75 4.132812 -3.921875 3.90625 -4.046875 C 3.6875 -4.179688 3.441406 -4.25 3.171875 -4.25 C 2.910156 -4.25 2.664062 -4.179688 2.4375 -4.046875 C 2.21875 -3.921875 2.039062 -3.75 1.90625 -3.53125 C 1.78125 -3.3125 1.71875 -3.066406 1.71875 -2.796875 C 1.71875 -2.535156 1.78125 -2.289062 1.90625 -2.0625 C 2.039062 -1.84375 2.21875 -1.664062 2.4375 -1.53125 C 2.664062 -1.40625 2.910156 -1.34375 3.171875 -1.34375 Z M 3.171875 -1.34375 "/></g></g></g><g fill="#0d364e" fill-opacity="1"><g transform="translate(141.780451, 284.47753)"><g><path d="M 2.515625 0.03125 C 1.890625 0.03125 1.398438 -0.171875 1.046875 -0.578125 C 0.691406 -0.984375 0.515625 -1.582031 0.515625 -2.375 L 0.515625 -5.46875 L 1.890625 -5.46875 L 1.890625 -2.546875 C 1.890625 -2.128906 1.972656 -1.820312 2.140625 -1.625 C 2.304688 -1.4375 2.566406 -1.34375 2.921875 -1.34375 C 3.265625 -1.34375 3.550781 -1.457031 3.78125 -1.6875 C 4.007812 -1.914062 4.125 -2.257812 4.125 -2.71875 L 4.125 -5.46875 L 5.5 -5.46875 L 5.5 -0.140625 L 4.125 -0.140625 L 4.125 -0.65625 C 3.925781 -0.425781 3.703125 -0.253906 3.453125 -0.140625 C 3.210938 -0.0234375 2.898438 0.03125 2.515625 0.03125 Z M 2.515625 0.03125 "/></g></g></g><g fill="#0d364e" fill-opacity="1"><g transform="translate(147.954675, 284.47753)"><g><path d="M 5.65625 -2.796875 C 5.65625 -2.648438 5.648438 -2.507812 5.640625 -2.375 L 1.765625 -2.375 C 1.867188 -2.007812 2.054688 -1.71875 2.328125 -1.5 C 2.597656 -1.28125 2.9375 -1.171875 3.34375 -1.171875 C 3.625 -1.171875 3.90625 -1.210938 4.1875 -1.296875 C 4.46875 -1.378906 4.71875 -1.5 4.9375 -1.65625 L 5.328125 -0.46875 C 5.109375 -0.320312 4.820312 -0.203125 4.46875 -0.109375 C 4.125 -0.015625 3.742188 0.03125 3.328125 0.03125 C 2.660156 0.03125 2.101562 -0.09375 1.65625 -0.34375 C 1.207031 -0.59375 0.875 -0.929688 0.65625 -1.359375 C 0.445312 -1.785156 0.34375 -2.265625 0.34375 -2.796875 C 0.34375 -3.335938 0.441406 -3.820312 0.640625 -4.25 C 0.847656 -4.675781 1.15625 -5.015625 1.5625 -5.265625 C 1.976562 -5.515625 2.488281 -5.640625 3.09375 -5.640625 C 3.914062 -5.640625 4.546875 -5.390625 4.984375 -4.890625 C 5.429688 -4.390625 5.65625 -3.691406 5.65625 -2.796875 Z M 4.203125 -3.40625 C 4.203125 -3.5625 4.15625 -3.71875 4.0625 -3.875 C 3.976562 -4.03125 3.84375 -4.160156 3.65625 -4.265625 C 3.476562 -4.378906 3.257812 -4.4375 3 -4.4375 C 2.78125 -4.4375 2.578125 -4.378906 2.390625 -4.265625 C 2.210938 -4.160156 2.066406 -4.023438 1.953125 -3.859375 C 1.847656 -3.703125 1.796875 -3.550781 1.796875 -3.40625 Z M 4.203125 -3.40625 "/></g></g></g><g fill="#0d364e" fill-opacity="1"><g transform="translate(153.956048, 284.47753)"><g/></g></g><g fill="#0d364e" fill-opacity="1"><g transform="translate(155.20057, 284.47753)"><g><path d="M 3.671875 -5.640625 C 4.296875 -5.640625 4.78125 -5.4375 5.125 -5.03125 C 5.476562 -4.625 5.65625 -4.023438 5.65625 -3.234375 L 5.65625 -0.140625 L 4.296875 -0.140625 L 4.296875 -3.0625 C 4.296875 -3.46875 4.210938 -3.765625 4.046875 -3.953125 C 3.878906 -4.148438 3.617188 -4.25 3.265625 -4.25 C 2.921875 -4.25 2.632812 -4.132812 2.40625 -3.90625 C 2.175781 -3.675781 2.0625 -3.335938 2.0625 -2.890625 L 2.0625 -0.140625 L 0.6875 -0.140625 L 0.6875 -5.46875 L 2.0625 -5.46875 L 2.0625 -4.953125 C 2.257812 -5.179688 2.476562 -5.351562 2.71875 -5.46875 C 2.96875 -5.582031 3.285156 -5.640625 3.671875 -5.640625 Z M 3.671875 -5.640625 "/></g></g></g><g fill="#0d364e" fill-opacity="1"><g transform="translate(161.374795, 284.47753)"><g><path d="M 5.65625 -2.796875 C 5.65625 -2.648438 5.648438 -2.507812 5.640625 -2.375 L 1.765625 -2.375 C 1.867188 -2.007812 2.054688 -1.71875 2.328125 -1.5 C 2.597656 -1.28125 2.9375 -1.171875 3.34375 -1.171875 C 3.625 -1.171875 3.90625 -1.210938 4.1875 -1.296875 C 4.46875 -1.378906 4.71875 -1.5 4.9375 -1.65625 L 5.328125 -0.46875 C 5.109375 -0.320312 4.820312 -0.203125 4.46875 -0.109375 C 4.125 -0.015625 3.742188 0.03125 3.328125 0.03125 C 2.660156 0.03125 2.101562 -0.09375 1.65625 -0.34375 C 1.207031 -0.59375 0.875 -0.929688 0.65625 -1.359375 C 0.445312 -1.785156 0.34375 -2.265625 0.34375 -2.796875 C 0.34375 -3.335938 0.441406 -3.820312 0.640625 -4.25 C 0.847656 -4.675781 1.15625 -5.015625 1.5625 -5.265625 C 1.976562 -5.515625 2.488281 -5.640625 3.09375 -5.640625 C 3.914062 -5.640625 4.546875 -5.390625 4.984375 -4.890625 C 5.429688 -4.390625 5.65625 -3.691406 5.65625 -2.796875 Z M 4.203125 -3.40625 C 4.203125 -3.5625 4.15625 -3.71875 4.0625 -3.875 C 3.976562 -4.03125 3.84375 -4.160156 3.65625 -4.265625 C 3.476562 -4.378906 3.257812 -4.4375 3 -4.4375 C 2.78125 -4.4375 2.578125 -4.378906 2.390625 -4.265625 C 2.210938 -4.160156 2.066406 -4.023438 1.953125 -3.859375 C 1.847656 -3.703125 1.796875 -3.550781 1.796875 -3.40625 Z M 4.203125 -3.40625 "/></g></g></g><g fill="#0d364e" fill-opacity="1"><g transform="translate(167.376168, 284.47753)"><g><path d="M 3.34375 -1.34375 C 3.582031 -1.34375 3.8125 -1.382812 4.03125 -1.46875 C 4.25 -1.550781 4.429688 -1.671875 4.578125 -1.828125 L 5.15625 -0.609375 C 4.945312 -0.398438 4.671875 -0.238281 4.328125 -0.125 C 3.992188 -0.0195312 3.648438 0.03125 3.296875 0.03125 C 2.691406 0.03125 2.164062 -0.09375 1.71875 -0.34375 C 1.28125 -0.59375 0.941406 -0.929688 0.703125 -1.359375 C 0.460938 -1.796875 0.34375 -2.273438 0.34375 -2.796875 C 0.34375 -3.328125 0.460938 -3.804688 0.703125 -4.234375 C 0.941406 -4.660156 1.285156 -5 1.734375 -5.25 C 2.179688 -5.507812 2.703125 -5.640625 3.296875 -5.640625 C 3.648438 -5.640625 3.988281 -5.582031 4.3125 -5.46875 C 4.632812 -5.363281 4.914062 -5.207031 5.15625 -5 L 4.578125 -3.765625 C 4.421875 -3.921875 4.234375 -4.039062 4.015625 -4.125 C 3.804688 -4.207031 3.582031 -4.25 3.34375 -4.25 C 3.019531 -4.25 2.734375 -4.1875 2.484375 -4.0625 C 2.242188 -3.9375 2.054688 -3.757812 1.921875 -3.53125 C 1.785156 -3.3125 1.71875 -3.066406 1.71875 -2.796875 C 1.71875 -2.523438 1.78125 -2.28125 1.90625 -2.0625 C 2.039062 -1.84375 2.234375 -1.664062 2.484375 -1.53125 C 2.734375 -1.40625 3.019531 -1.34375 3.34375 -1.34375 Z M 3.34375 -1.34375 "/></g></g></g><g fill="#0d364e" fill-opacity="1"><g transform="translate(172.865898, 284.47753)"><g><path d="M 5.65625 -2.796875 C 5.65625 -2.648438 5.648438 -2.507812 5.640625 -2.375 L 1.765625 -2.375 C 1.867188 -2.007812 2.054688 -1.71875 2.328125 -1.5 C 2.597656 -1.28125 2.9375 -1.171875 3.34375 -1.171875 C 3.625 -1.171875 3.90625 -1.210938 4.1875 -1.296875 C 4.46875 -1.378906 4.71875 -1.5 4.9375 -1.65625 L 5.328125 -0.46875 C 5.109375 -0.320312 4.820312 -0.203125 4.46875 -0.109375 C 4.125 -0.015625 3.742188 0.03125 3.328125 0.03125 C 2.660156 0.03125 2.101562 -0.09375 1.65625 -0.34375 C 1.207031 -0.59375 0.875 -0.929688 0.65625 -1.359375 C 0.445312 -1.785156 0.34375 -2.265625 0.34375 -2.796875 C 0.34375 -3.335938 0.441406 -3.820312 0.640625 -4.25 C 0.847656 -4.675781 1.15625 -5.015625 1.5625 -5.265625 C 1.976562 -5.515625 2.488281 -5.640625 3.09375 -5.640625 C 3.914062 -5.640625 4.546875 -5.390625 4.984375 -4.890625 C 5.429688 -4.390625 5.65625 -3.691406 5.65625 -2.796875 Z M 4.203125 -3.40625 C 4.203125 -3.5625 4.15625 -3.71875 4.0625 -3.875 C 3.976562 -4.03125 3.84375 -4.160156 3.65625 -4.265625 C 3.476562 -4.378906 3.257812 -4.4375 3 -4.4375 C 2.78125 -4.4375 2.578125 -4.378906 2.390625 -4.265625 C 2.210938 -4.160156 2.066406 -4.023438 1.953125 -3.859375 C 1.847656 -3.703125 1.796875 -3.550781 1.796875 -3.40625 Z M 4.203125 -3.40625 "/></g></g></g><g fill="#0d364e" fill-opacity="1"><g transform="translate(178.867271, 284.47753)"><g><path d="M 3.015625 -3.53125 C 3.835938 -3.394531 4.398438 -3.179688 4.703125 -2.890625 C 5.003906 -2.597656 5.15625 -2.253906 5.15625 -1.859375 C 5.15625 -1.492188 5.0625 -1.164062 4.875 -0.875 C 4.6875 -0.59375 4.414062 -0.367188 4.0625 -0.203125 C 3.707031 -0.046875 3.289062 0.03125 2.8125 0.03125 C 2.425781 0.03125 2.0625 -0.0078125 1.71875 -0.09375 C 1.382812 -0.1875 1.097656 -0.289062 0.859375 -0.40625 C 0.628906 -0.53125 0.457031 -0.640625 0.34375 -0.734375 L 0.796875 -2.03125 C 1.023438 -1.8125 1.320312 -1.628906 1.6875 -1.484375 C 2.050781 -1.347656 2.398438 -1.28125 2.734375 -1.28125 C 3.054688 -1.28125 3.3125 -1.316406 3.5 -1.390625 C 3.6875 -1.460938 3.78125 -1.578125 3.78125 -1.734375 C 3.78125 -1.847656 3.710938 -1.9375 3.578125 -2 C 3.441406 -2.0625 3.191406 -2.125 2.828125 -2.1875 C 2.191406 -2.28125 1.703125 -2.410156 1.359375 -2.578125 C 1.023438 -2.753906 0.800781 -2.953125 0.6875 -3.171875 C 0.570312 -3.398438 0.515625 -3.675781 0.515625 -4 C 0.515625 -4.289062 0.609375 -4.5625 0.796875 -4.8125 C 0.992188 -5.0625 1.269531 -5.257812 1.625 -5.40625 C 1.988281 -5.5625 2.394531 -5.640625 2.84375 -5.640625 C 3.144531 -5.640625 3.472656 -5.597656 3.828125 -5.515625 C 4.191406 -5.429688 4.554688 -5.296875 4.921875 -5.109375 L 4.53125 -3.875 C 4.375 -3.988281 4.128906 -4.09375 3.796875 -4.1875 C 3.460938 -4.28125 3.128906 -4.328125 2.796875 -4.328125 C 2.515625 -4.328125 2.289062 -4.296875 2.125 -4.234375 C 1.96875 -4.179688 1.890625 -4.101562 1.890625 -4 C 1.890625 -3.875 1.96875 -3.78125 2.125 -3.71875 C 2.28125 -3.664062 2.523438 -3.613281 2.859375 -3.5625 Z M 3.015625 -3.53125 "/></g></g></g><g fill="#0d364e" fill-opacity="1"><g transform="translate(184.357002, 284.47753)"><g><path d="M 1.375 -6.140625 C 1.195312 -6.140625 1.035156 -6.179688 0.890625 -6.265625 C 0.742188 -6.359375 0.628906 -6.476562 0.546875 -6.625 C 0.460938 -6.769531 0.421875 -6.925781 0.421875 -7.09375 C 0.421875 -7.257812 0.460938 -7.414062 0.546875 -7.5625 C 0.628906 -7.707031 0.742188 -7.820312 0.890625 -7.90625 C 1.035156 -7.988281 1.195312 -8.03125 1.375 -8.03125 C 1.539062 -8.03125 1.695312 -7.988281 1.84375 -7.90625 C 1.988281 -7.820312 2.101562 -7.707031 2.1875 -7.5625 C 2.269531 -7.414062 2.3125 -7.257812 2.3125 -7.09375 C 2.3125 -6.925781 2.269531 -6.769531 2.1875 -6.625 C 2.101562 -6.476562 1.988281 -6.359375 1.84375 -6.265625 C 1.695312 -6.179688 1.539062 -6.140625 1.375 -6.140625 Z M 2.0625 -5.46875 L 2.0625 -0.140625 L 0.6875 -0.140625 L 0.6875 -5.46875 Z M 2.0625 -5.46875 "/></g></g></g><g fill="#0d364e" fill-opacity="1"><g transform="translate(187.101867, 284.47753)"><g><path d="M 0.34375 -5.46875 L 1.03125 -5.46875 L 1.03125 -7.34375 L 2.40625 -7.34375 L 2.40625 -5.46875 L 3.4375 -5.46875 L 3.4375 -4.25 L 2.40625 -4.25 L 2.40625 -2.03125 C 2.40625 -1.75 2.445312 -1.550781 2.53125 -1.4375 C 2.613281 -1.320312 2.742188 -1.265625 2.921875 -1.265625 C 3.054688 -1.265625 3.226562 -1.289062 3.4375 -1.34375 L 3.4375 -0.140625 C 3.289062 -0.0859375 3.132812 -0.046875 2.96875 -0.015625 C 2.8125 0.015625 2.628906 0.03125 2.421875 0.03125 C 1.953125 0.03125 1.601562 -0.117188 1.375 -0.421875 C 1.144531 -0.722656 1.03125 -1.132812 1.03125 -1.65625 L 1.03125 -4.25 L 0.34375 -4.25 Z M 0.34375 -5.46875 "/></g></g></g><g fill="#0d364e" fill-opacity="1"><g transform="translate(191.042857, 284.47753)"><g><path d="M 5.65625 -2.796875 C 5.65625 -2.648438 5.648438 -2.507812 5.640625 -2.375 L 1.765625 -2.375 C 1.867188 -2.007812 2.054688 -1.71875 2.328125 -1.5 C 2.597656 -1.28125 2.9375 -1.171875 3.34375 -1.171875 C 3.625 -1.171875 3.90625 -1.210938 4.1875 -1.296875 C 4.46875 -1.378906 4.71875 -1.5 4.9375 -1.65625 L 5.328125 -0.46875 C 5.109375 -0.320312 4.820312 -0.203125 4.46875 -0.109375 C 4.125 -0.015625 3.742188 0.03125 3.328125 0.03125 C 2.660156 0.03125 2.101562 -0.09375 1.65625 -0.34375 C 1.207031 -0.59375 0.875 -0.929688 0.65625 -1.359375 C 0.445312 -1.785156 0.34375 -2.265625 0.34375 -2.796875 C 0.34375 -3.335938 0.441406 -3.820312 0.640625 -4.25 C 0.847656 -4.675781 1.15625 -5.015625 1.5625 -5.265625 C 1.976562 -5.515625 2.488281 -5.640625 3.09375 -5.640625 C 3.914062 -5.640625 4.546875 -5.390625 4.984375 -4.890625 C 5.429688 -4.390625 5.65625 -3.691406 5.65625 -2.796875 Z M 4.203125 -3.40625 C 4.203125 -3.5625 4.15625 -3.71875 4.0625 -3.875 C 3.976562 -4.03125 3.84375 -4.160156 3.65625 -4.265625 C 3.476562 -4.378906 3.257812 -4.4375 3 -4.4375 C 2.78125 -4.4375 2.578125 -4.378906 2.390625 -4.265625 C 2.210938 -4.160156 2.066406 -4.023438 1.953125 -3.859375 C 1.847656 -3.703125 1.796875 -3.550781 1.796875 -3.40625 Z M 4.203125 -3.40625 "/></g></g></g><g fill="#0d364e" fill-opacity="1"><g transform="translate(197.04423, 284.47753)"><g><path d="M 3.015625 -3.53125 C 3.835938 -3.394531 4.398438 -3.179688 4.703125 -2.890625 C 5.003906 -2.597656 5.15625 -2.253906 5.15625 -1.859375 C 5.15625 -1.492188 5.0625 -1.164062 4.875 -0.875 C 4.6875 -0.59375 4.414062 -0.367188 4.0625 -0.203125 C 3.707031 -0.046875 3.289062 0.03125 2.8125 0.03125 C 2.425781 0.03125 2.0625 -0.0078125 1.71875 -0.09375 C 1.382812 -0.1875 1.097656 -0.289062 0.859375 -0.40625 C 0.628906 -0.53125 0.457031 -0.640625 0.34375 -0.734375 L 0.796875 -2.03125 C 1.023438 -1.8125 1.320312 -1.628906 1.6875 -1.484375 C 2.050781 -1.347656 2.398438 -1.28125 2.734375 -1.28125 C 3.054688 -1.28125 3.3125 -1.316406 3.5 -1.390625 C 3.6875 -1.460938 3.78125 -1.578125 3.78125 -1.734375 C 3.78125 -1.847656 3.710938 -1.9375 3.578125 -2 C 3.441406 -2.0625 3.191406 -2.125 2.828125 -2.1875 C 2.191406 -2.28125 1.703125 -2.410156 1.359375 -2.578125 C 1.023438 -2.753906 0.800781 -2.953125 0.6875 -3.171875 C 0.570312 -3.398438 0.515625 -3.675781 0.515625 -4 C 0.515625 -4.289062 0.609375 -4.5625 0.796875 -4.8125 C 0.992188 -5.0625 1.269531 -5.257812 1.625 -5.40625 C 1.988281 -5.5625 2.394531 -5.640625 2.84375 -5.640625 C 3.144531 -5.640625 3.472656 -5.597656 3.828125 -5.515625 C 4.191406 -5.429688 4.554688 -5.296875 4.921875 -5.109375 L 4.53125 -3.875 C 4.375 -3.988281 4.128906 -4.09375 3.796875 -4.1875 C 3.460938 -4.28125 3.128906 -4.328125 2.796875 -4.328125 C 2.515625 -4.328125 2.289062 -4.296875 2.125 -4.234375 C 1.96875 -4.179688 1.890625 -4.101562 1.890625 -4 C 1.890625 -3.875 1.96875 -3.78125 2.125 -3.71875 C 2.28125 -3.664062 2.523438 -3.613281 2.859375 -3.5625 Z M 3.015625 -3.53125 "/></g></g></g><g fill="#0d364e" fill-opacity="1"><g transform="translate(202.53396, 284.47753)"><g><path d="M 2.484375 -1.515625 L 1.203125 1.0625 L 0.34375 1.0625 L 0.9375 -1.515625 Z M 2.484375 -1.515625 "/></g></g></g><g fill="#0d364e" fill-opacity="1"><g transform="translate(205.534647, 284.47753)"><g/></g></g><g fill="#0d364e" fill-opacity="1"><g transform="translate(206.779169, 284.47753)"><g><path d="M 5.65625 -2.796875 C 5.65625 -2.648438 5.648438 -2.507812 5.640625 -2.375 L 1.765625 -2.375 C 1.867188 -2.007812 2.054688 -1.71875 2.328125 -1.5 C 2.597656 -1.28125 2.9375 -1.171875 3.34375 -1.171875 C 3.625 -1.171875 3.90625 -1.210938 4.1875 -1.296875 C 4.46875 -1.378906 4.71875 -1.5 4.9375 -1.65625 L 5.328125 -0.46875 C 5.109375 -0.320312 4.820312 -0.203125 4.46875 -0.109375 C 4.125 -0.015625 3.742188 0.03125 3.328125 0.03125 C 2.660156 0.03125 2.101562 -0.09375 1.65625 -0.34375 C 1.207031 -0.59375 0.875 -0.929688 0.65625 -1.359375 C 0.445312 -1.785156 0.34375 -2.265625 0.34375 -2.796875 C 0.34375 -3.335938 0.441406 -3.820312 0.640625 -4.25 C 0.847656 -4.675781 1.15625 -5.015625 1.5625 -5.265625 C 1.976562 -5.515625 2.488281 -5.640625 3.09375 -5.640625 C 3.914062 -5.640625 4.546875 -5.390625 4.984375 -4.890625 C 5.429688 -4.390625 5.65625 -3.691406 5.65625 -2.796875 Z M 4.203125 -3.40625 C 4.203125 -3.5625 4.15625 -3.71875 4.0625 -3.875 C 3.976562 -4.03125 3.84375 -4.160156 3.65625 -4.265625 C 3.476562 -4.378906 3.257812 -4.4375 3 -4.4375 C 2.78125 -4.4375 2.578125 -4.378906 2.390625 -4.265625 C 2.210938 -4.160156 2.066406 -4.023438 1.953125 -3.859375 C 1.847656 -3.703125 1.796875 -3.550781 1.796875 -3.40625 Z M 4.203125 -3.40625 "/></g></g></g><g fill="#0d364e" fill-opacity="1"><g transform="translate(212.780542, 284.47753)"><g><path d="M 3.015625 -3.53125 C 3.835938 -3.394531 4.398438 -3.179688 4.703125 -2.890625 C 5.003906 -2.597656 5.15625 -2.253906 5.15625 -1.859375 C 5.15625 -1.492188 5.0625 -1.164062 4.875 -0.875 C 4.6875 -0.59375 4.414062 -0.367188 4.0625 -0.203125 C 3.707031 -0.046875 3.289062 0.03125 2.8125 0.03125 C 2.425781 0.03125 2.0625 -0.0078125 1.71875 -0.09375 C 1.382812 -0.1875 1.097656 -0.289062 0.859375 -0.40625 C 0.628906 -0.53125 0.457031 -0.640625 0.34375 -0.734375 L 0.796875 -2.03125 C 1.023438 -1.8125 1.320312 -1.628906 1.6875 -1.484375 C 2.050781 -1.347656 2.398438 -1.28125 2.734375 -1.28125 C 3.054688 -1.28125 3.3125 -1.316406 3.5 -1.390625 C 3.6875 -1.460938 3.78125 -1.578125 3.78125 -1.734375 C 3.78125 -1.847656 3.710938 -1.9375 3.578125 -2 C 3.441406 -2.0625 3.191406 -2.125 2.828125 -2.1875 C 2.191406 -2.28125 1.703125 -2.410156 1.359375 -2.578125 C 1.023438 -2.753906 0.800781 -2.953125 0.6875 -3.171875 C 0.570312 -3.398438 0.515625 -3.675781 0.515625 -4 C 0.515625 -4.289062 0.609375 -4.5625 0.796875 -4.8125 C 0.992188 -5.0625 1.269531 -5.257812 1.625 -5.40625 C 1.988281 -5.5625 2.394531 -5.640625 2.84375 -5.640625 C 3.144531 -5.640625 3.472656 -5.597656 3.828125 -5.515625 C 4.191406 -5.429688 4.554688 -5.296875 4.921875 -5.109375 L 4.53125 -3.875 C 4.375 -3.988281 4.128906 -4.09375 3.796875 -4.1875 C 3.460938 -4.28125 3.128906 -4.328125 2.796875 -4.328125 C 2.515625 -4.328125 2.289062 -4.296875 2.125 -4.234375 C 1.96875 -4.179688 1.890625 -4.101562 1.890625 -4 C 1.890625 -3.875 1.96875 -3.78125 2.125 -3.71875 C 2.28125 -3.664062 2.523438 -3.613281 2.859375 -3.5625 Z M 3.015625 -3.53125 "/></g></g></g><g fill="#0d364e" fill-opacity="1"><g transform="translate(218.270272, 284.47753)"><g><path d="M 0.34375 -5.46875 L 1.03125 -5.46875 L 1.03125 -7.34375 L 2.40625 -7.34375 L 2.40625 -5.46875 L 3.4375 -5.46875 L 3.4375 -4.25 L 2.40625 -4.25 L 2.40625 -2.03125 C 2.40625 -1.75 2.445312 -1.550781 2.53125 -1.4375 C 2.613281 -1.320312 2.742188 -1.265625 2.921875 -1.265625 C 3.054688 -1.265625 3.226562 -1.289062 3.4375 -1.34375 L 3.4375 -0.140625 C 3.289062 -0.0859375 3.132812 -0.046875 2.96875 -0.015625 C 2.8125 0.015625 2.628906 0.03125 2.421875 0.03125 C 1.953125 0.03125 1.601562 -0.117188 1.375 -0.421875 C 1.144531 -0.722656 1.03125 -1.132812 1.03125 -1.65625 L 1.03125 -4.25 L 0.34375 -4.25 Z M 0.34375 -5.46875 "/></g></g></g><g fill="#0d364e" fill-opacity="1"><g transform="translate(222.211262, 284.47753)"><g><path d="M 4.640625 -0.140625 L 4.640625 -0.703125 C 4.421875 -0.460938 4.171875 -0.28125 3.890625 -0.15625 C 3.617188 -0.03125 3.320312 0.03125 3 0.03125 C 2.519531 0.03125 2.078125 -0.09375 1.671875 -0.34375 C 1.265625 -0.601562 0.941406 -0.945312 0.703125 -1.375 C 0.460938 -1.8125 0.34375 -2.285156 0.34375 -2.796875 C 0.34375 -3.316406 0.460938 -3.789062 0.703125 -4.21875 C 0.941406 -4.65625 1.265625 -5 1.671875 -5.25 C 2.078125 -5.507812 2.519531 -5.640625 3 -5.640625 C 3.320312 -5.640625 3.617188 -5.578125 3.890625 -5.453125 C 4.171875 -5.328125 4.421875 -5.140625 4.640625 -4.890625 L 4.640625 -5.46875 L 6.015625 -5.46875 L 6.015625 -0.140625 Z M 3.171875 -1.34375 C 3.441406 -1.34375 3.6875 -1.40625 3.90625 -1.53125 C 4.132812 -1.664062 4.3125 -1.84375 4.4375 -2.0625 C 4.570312 -2.289062 4.640625 -2.535156 4.640625 -2.796875 C 4.640625 -3.066406 4.570312 -3.3125 4.4375 -3.53125 C 4.3125 -3.75 4.132812 -3.921875 3.90625 -4.046875 C 3.6875 -4.179688 3.441406 -4.25 3.171875 -4.25 C 2.910156 -4.25 2.664062 -4.179688 2.4375 -4.046875 C 2.21875 -3.921875 2.039062 -3.75 1.90625 -3.53125 C 1.78125 -3.3125 1.71875 -3.066406 1.71875 -2.796875 C 1.71875 -2.535156 1.78125 -2.289062 1.90625 -2.0625 C 2.039062 -1.84375 2.21875 -1.664062 2.4375 -1.53125 C 2.664062 -1.40625 2.910156 -1.34375 3.171875 -1.34375 Z M 3.171875 -1.34375 "/></g></g></g><g fill="#0d364e" fill-opacity="1"><g transform="translate(228.897118, 284.47753)"><g><path d="M 6.515625 -5.640625 C 6.929688 -5.640625 7.296875 -5.546875 7.609375 -5.359375 C 7.921875 -5.179688 8.160156 -4.910156 8.328125 -4.546875 C 8.492188 -4.191406 8.578125 -3.753906 8.578125 -3.234375 L 8.578125 -0.140625 L 7.21875 -0.140625 L 7.21875 -3.0625 C 7.21875 -3.488281 7.148438 -3.789062 7.015625 -3.96875 C 6.890625 -4.15625 6.671875 -4.25 6.359375 -4.25 C 6.035156 -4.25 5.78125 -4.132812 5.59375 -3.90625 C 5.414062 -3.6875 5.328125 -3.347656 5.328125 -2.890625 L 5.328125 -0.140625 L 3.953125 -0.140625 L 3.953125 -3.0625 C 3.953125 -3.476562 3.882812 -3.78125 3.75 -3.96875 C 3.613281 -4.15625 3.394531 -4.25 3.09375 -4.25 C 2.769531 -4.25 2.515625 -4.132812 2.328125 -3.90625 C 2.148438 -3.6875 2.0625 -3.347656 2.0625 -2.890625 L 2.0625 -0.140625 L 0.6875 -0.140625 L 0.6875 -5.46875 L 2.0625 -5.46875 L 2.0625 -4.953125 C 2.226562 -5.160156 2.429688 -5.328125 2.671875 -5.453125 C 2.910156 -5.578125 3.164062 -5.640625 3.4375 -5.640625 C 4.113281 -5.640625 4.609375 -5.398438 4.921875 -4.921875 C 5.140625 -5.148438 5.375 -5.328125 5.625 -5.453125 C 5.875 -5.578125 6.171875 -5.640625 6.515625 -5.640625 Z M 6.515625 -5.640625 "/></g></g></g><g fill="#0d364e" fill-opacity="1"><g transform="translate(237.982135, 284.47753)"><g><path d="M 3.171875 -5.640625 C 3.691406 -5.640625 4.164062 -5.507812 4.59375 -5.25 C 5.03125 -5 5.375 -4.65625 5.625 -4.21875 C 5.882812 -3.789062 6.015625 -3.316406 6.015625 -2.796875 C 6.015625 -2.285156 5.882812 -1.8125 5.625 -1.375 C 5.375 -0.945312 5.03125 -0.601562 4.59375 -0.34375 C 4.164062 -0.09375 3.691406 0.03125 3.171875 0.03125 C 2.660156 0.03125 2.1875 -0.09375 1.75 -0.34375 C 1.320312 -0.601562 0.976562 -0.945312 0.71875 -1.375 C 0.46875 -1.8125 0.34375 -2.285156 0.34375 -2.796875 C 0.34375 -3.316406 0.46875 -3.789062 0.71875 -4.21875 C 0.976562 -4.65625 1.320312 -5 1.75 -5.25 C 2.1875 -5.507812 2.660156 -5.640625 3.171875 -5.640625 Z M 3.171875 -1.34375 C 3.441406 -1.34375 3.6875 -1.40625 3.90625 -1.53125 C 4.132812 -1.664062 4.3125 -1.84375 4.4375 -2.0625 C 4.570312 -2.289062 4.640625 -2.535156 4.640625 -2.796875 C 4.640625 -3.066406 4.570312 -3.3125 4.4375 -3.53125 C 4.3125 -3.75 4.132812 -3.921875 3.90625 -4.046875 C 3.6875 -4.179688 3.441406 -4.25 3.171875 -4.25 C 2.910156 -4.25 2.664062 -4.179688 2.4375 -4.046875 C 2.21875 -3.921875 2.039062 -3.75 1.90625 -3.53125 C 1.78125 -3.3125 1.71875 -3.066406 1.71875 -2.796875 C 1.71875 -2.535156 1.78125 -2.289062 1.90625 -2.0625 C 2.039062 -1.84375 2.21875 -1.664062 2.4375 -1.53125 C 2.664062 -1.40625 2.910156 -1.34375 3.171875 -1.34375 Z M 3.171875 -1.34375 "/></g></g></g><g fill="#0d364e" fill-opacity="1"><g transform="translate(244.3292, 284.47753)"><g><path d="M 3.015625 -3.53125 C 3.835938 -3.394531 4.398438 -3.179688 4.703125 -2.890625 C 5.003906 -2.597656 5.15625 -2.253906 5.15625 -1.859375 C 5.15625 -1.492188 5.0625 -1.164062 4.875 -0.875 C 4.6875 -0.59375 4.414062 -0.367188 4.0625 -0.203125 C 3.707031 -0.046875 3.289062 0.03125 2.8125 0.03125 C 2.425781 0.03125 2.0625 -0.0078125 1.71875 -0.09375 C 1.382812 -0.1875 1.097656 -0.289062 0.859375 -0.40625 C 0.628906 -0.53125 0.457031 -0.640625 0.34375 -0.734375 L 0.796875 -2.03125 C 1.023438 -1.8125 1.320312 -1.628906 1.6875 -1.484375 C 2.050781 -1.347656 2.398438 -1.28125 2.734375 -1.28125 C 3.054688 -1.28125 3.3125 -1.316406 3.5 -1.390625 C 3.6875 -1.460938 3.78125 -1.578125 3.78125 -1.734375 C 3.78125 -1.847656 3.710938 -1.9375 3.578125 -2 C 3.441406 -2.0625 3.191406 -2.125 2.828125 -2.1875 C 2.191406 -2.28125 1.703125 -2.410156 1.359375 -2.578125 C 1.023438 -2.753906 0.800781 -2.953125 0.6875 -3.171875 C 0.570312 -3.398438 0.515625 -3.675781 0.515625 -4 C 0.515625 -4.289062 0.609375 -4.5625 0.796875 -4.8125 C 0.992188 -5.0625 1.269531 -5.257812 1.625 -5.40625 C 1.988281 -5.5625 2.394531 -5.640625 2.84375 -5.640625 C 3.144531 -5.640625 3.472656 -5.597656 3.828125 -5.515625 C 4.191406 -5.429688 4.554688 -5.296875 4.921875 -5.109375 L 4.53125 -3.875 C 4.375 -3.988281 4.128906 -4.09375 3.796875 -4.1875 C 3.460938 -4.28125 3.128906 -4.328125 2.796875 -4.328125 C 2.515625 -4.328125 2.289062 -4.296875 2.125 -4.234375 C 1.96875 -4.179688 1.890625 -4.101562 1.890625 -4 C 1.890625 -3.875 1.96875 -3.78125 2.125 -3.71875 C 2.28125 -3.664062 2.523438 -3.613281 2.859375 -3.5625 Z M 3.015625 -3.53125 "/></g></g></g><g fill="#0d364e" fill-opacity="1"><g transform="translate(249.81893, 284.47753)"><g><path d="M 1.5625 0.15625 C 1.53125 0.1875 1.5 0.203125 1.46875 0.203125 C 1.425781 0.203125 1.394531 0.1875 1.375 0.15625 L 0.4375 -0.828125 C 0.414062 -0.859375 0.40625 -0.890625 0.40625 -0.921875 C 0.40625 -0.953125 0.414062 -0.984375 0.4375 -1.015625 L 1.359375 -1.9375 C 1.378906 -1.957031 1.410156 -1.96875 1.453125 -1.96875 C 1.492188 -1.96875 1.53125 -1.953125 1.5625 -1.921875 L 2.53125 -0.890625 C 2.550781 -0.867188 2.5625 -0.835938 2.5625 -0.796875 C 2.5625 -0.753906 2.546875 -0.71875 2.515625 -0.6875 Z M 1.5625 0.15625 "/></g></g></g></svg>